<?xml version="1.0" encoding="utf-8"?>
<svg viewBox="0 0 800 800" xmlns="http://www.w3.org/2000/svg">
  <ellipse style="fill: rgb(31, 41, 55); stroke: rgb(0, 0, 0); transform-origin: 400px 400px;" cx="400" cy="400" rx="390.97" ry="390.97"/>
  <path d="M 274.815 436.665 C 276.228 436.665 277.478 437.212 278.565 438.305 L 288.735 449.345 C 283.108 456.318 276.182 461.662 267.955 465.375 C 259.728 469.088 249.855 470.945 238.335 470.945 C 228.035 470.945 218.772 469.185 210.545 465.665 C 202.325 462.145 195.302 457.248 189.475 450.975 C 183.648 444.702 179.185 437.212 176.085 428.505 C 172.978 419.805 171.425 410.302 171.425 399.995 C 171.425 389.562 173.088 380.012 176.415 371.345 C 179.748 362.672 184.438 355.198 190.485 348.925 C 196.532 342.652 203.748 337.772 212.135 334.285 C 220.515 330.798 229.795 329.055 239.975 329.055 C 250.082 329.055 259.055 330.718 266.895 334.045 C 274.735 337.372 281.408 341.725 286.915 347.105 L 278.275 359.105 C 277.762 359.872 277.105 360.542 276.305 361.115 C 275.505 361.695 274.402 361.985 272.995 361.985 C 272.035 361.985 271.042 361.712 270.015 361.165 C 268.995 360.618 267.875 359.945 266.655 359.145 C 265.442 358.345 264.035 357.465 262.435 356.505 C 260.835 355.545 258.978 354.665 256.865 353.865 C 254.752 353.065 252.305 352.395 249.525 351.855 C 246.738 351.308 243.522 351.035 239.875 351.035 C 233.668 351.035 227.988 352.138 222.835 354.345 C 217.682 356.558 213.248 359.758 209.535 363.945 C 205.828 368.138 202.948 373.258 200.895 379.305 C 198.848 385.358 197.825 392.255 197.825 399.995 C 197.825 407.802 198.928 414.745 201.135 420.825 C 203.348 426.905 206.342 432.025 210.115 436.185 C 213.888 440.345 218.335 443.532 223.455 445.745 C 228.575 447.952 234.082 449.055 239.975 449.055 C 243.495 449.055 246.678 448.862 249.525 448.475 C 252.372 448.095 254.995 447.488 257.395 446.655 C 259.795 445.822 262.068 444.748 264.215 443.435 C 266.355 442.122 268.482 440.505 270.595 438.585 C 271.235 438.012 271.908 437.548 272.615 437.195 C 273.315 436.842 274.048 436.665 274.815 436.665 L 274.815 436.665 Z M 332.325 448.095 L 387.815 448.095 L 387.815 469.405 L 306.495 469.405 L 306.495 330.585 L 332.325 330.585 L 332.325 448.095 Z M 486.595 343.645 L 480.165 355.835 C 479.398 357.182 478.582 358.158 477.715 358.765 C 476.848 359.372 475.775 359.675 474.495 359.675 C 473.155 359.675 471.702 359.178 470.135 358.185 C 468.562 357.198 466.688 356.095 464.515 354.875 C 462.342 353.662 459.798 352.558 456.885 351.565 C 453.972 350.572 450.532 350.075 446.565 350.075 C 442.978 350.075 439.842 350.508 437.155 351.375 C 434.468 352.235 432.212 353.435 430.385 354.975 C 428.565 356.508 427.205 358.348 426.305 360.495 C 425.412 362.635 424.965 364.985 424.965 367.545 C 424.965 370.812 425.875 373.532 427.695 375.705 C 429.522 377.885 431.938 379.742 434.945 381.275 C 437.952 382.815 441.375 384.192 445.215 385.405 C 449.055 386.618 452.992 387.915 457.025 389.295 C 461.058 390.668 464.995 392.268 468.835 394.095 C 472.675 395.915 476.098 398.218 479.105 401.005 C 482.112 403.792 484.528 407.198 486.355 411.225 C 488.182 415.258 489.095 420.155 489.095 425.915 C 489.095 432.188 488.022 438.062 485.875 443.535 C 483.728 449.008 480.592 453.775 476.465 457.835 C 472.338 461.902 467.298 465.102 461.345 467.435 C 455.392 469.775 448.575 470.945 440.895 470.945 C 436.482 470.945 432.132 470.512 427.845 469.645 C 423.558 468.778 419.445 467.545 415.505 465.945 C 411.572 464.345 407.875 462.425 404.415 460.185 C 400.962 457.945 397.892 455.452 395.205 452.705 L 402.785 440.315 C 403.425 439.422 404.258 438.672 405.285 438.065 C 406.305 437.452 407.392 437.145 408.545 437.145 C 410.145 437.145 411.875 437.802 413.735 439.115 C 415.588 440.428 417.795 441.885 420.355 443.485 C 422.915 445.085 425.908 446.542 429.335 447.855 C 432.755 449.168 436.865 449.825 441.665 449.825 C 449.025 449.825 454.722 448.078 458.755 444.585 C 462.788 441.098 464.805 436.092 464.805 429.565 C 464.805 425.918 463.892 422.942 462.065 420.635 C 460.245 418.335 457.828 416.398 454.815 414.825 C 451.808 413.258 448.385 411.932 444.545 410.845 C 440.705 409.758 436.802 408.575 432.835 407.295 C 428.868 406.015 424.965 404.478 421.125 402.685 C 417.285 400.892 413.862 398.555 410.855 395.675 C 407.842 392.795 405.425 389.195 403.605 384.875 C 401.778 380.555 400.865 375.228 400.865 368.895 C 400.865 363.835 401.875 358.905 403.895 354.105 C 405.908 349.305 408.835 345.052 412.675 341.345 C 416.515 337.632 421.252 334.655 426.885 332.415 C 432.518 330.175 438.982 329.055 446.275 329.055 C 454.468 329.055 462.022 330.335 468.935 332.895 C 475.842 335.455 481.728 339.038 486.595 343.645 L 486.595 343.645 Z M 602.655 330.585 L 628.575 330.585 L 628.575 469.405 L 602.655 469.405 L 602.655 408.735 L 537.475 408.735 L 537.475 469.405 L 511.555 469.405 L 511.555 330.585 L 537.475 330.585 L 537.475 390.305 L 602.655 390.305 L 602.655 330.585 Z" style="fill: rgb(255, 255, 255);"/>
</svg>